<svg height="511pt" viewBox="-5 0 511 511.99866" width="511pt" xmlns="http://www.w3.org/2000/svg"><path d="m490.5 267c0 135.308594-109.691406 245-245 245s-245-109.691406-245-245c0-135.3125 109.691406-245 245-245s245 109.6875 245 245zm0 0" fill="#69d173"/><path d="m17.429688 177.332031c-3.875 9.84375-7.117188 20.007813-9.703126 30.429688l69.457032 222.09375c1.511718 4.835937 6.65625 7.527343 11.488281 6.015625 2.289063-.714844 4.09375-2.242188 5.207031-4.164063 1.234375-2.144531 1.609375-4.777343.808594-7.324219zm0 0" fill="#ebeaec"/><path d="m437.621094 419.03125-253.015625 56.710938c-4.941407 1.109374-8.050781 6.015624-6.941407 10.957031 1.105469 4.941406 6.011719 8.050781 10.953126 6.941406l227.703124-51.035156c7.59375-7.390625 14.710938-15.261719 21.300782-23.574219zm0 0" fill="#ebeaec"/><path d="m94.6875 424.382812-28.660156-91.65625c-2.386719 7.050782-10.480469 10.300782-17.066406 6.886719l28.222656 90.242188c1.511718 4.835937 6.65625 7.527343 11.492187 6.015625 4.855469-1.519532 7.519531-6.679688 6.011719-11.488282zm0 0" fill="#dad9dd"/><path d="m282.117188 453.886719-97.511719 21.859375c-4.941407 1.105468-8.050781 6.011718-6.941407 10.953125 1.105469 4.945312 6.011719 8.050781 10.953126 6.945312l98.058593-21.980469c-6.628906-3.3125-8.78125-11.707031-4.558593-17.777343zm0 0" fill="#dad9dd"/><path d="m241.378906 79.746094 32.390625-56.097656 167.660157 96.800781-32.390626 56.097656zm0 0" fill="#fcac1f"/><path d="m277.691406 63.304688c7.277344-12.605469 21.183594-19 34.773438-17.324219l-38.695313-22.339844-32.390625 56.097656 38.699219 22.339844c-8.246094-10.929687-9.664063-26.167969-2.386719-38.773437zm0 0" fill="#ff941f"/><path d="m160.847656 23.5625c-36.214844 6.476562-45.574218 38-50.773437 44.511719-11.503907 19.921875-31.285157 33.851562-51.644531 40.742187-10.945313 12.929688-20.5625 27.015625-28.667969 42.035156 44.136719-.367187 88.867187-23.359374 112.457031-64.21875l8.644531-14.972656c3.519531-6.097656 9.542969-10.308594 16.523438-11.558594 12.890625-2.304687 31.824219-4.550781 52.242187-3.179687l20.21875-35.019531c-30.964844-4.832032-60.332031-1.675782-79 1.660156zm0 0" fill="#a0391e"/><path d="m497.957031 218.191406c-6.441406-17.832031-18.394531-44.84375-38.058593-69.242187l-20.21875 35.019531c11.394531 16.992188 18.917968 34.515625 23.367187 46.832031 2.410156 6.671875 1.769531 13.992188-1.75 20.089844l-8.644531 14.972656c-24.105469 41.75-22.035156 91.539063 1.0625 130.269531 8.585937-13.820312 15.832031-28.5625 21.566406-44.039062-5.492188-22.160156-2.773438-46.382812 9.515625-67.671875 3.042969-7.757813 25.660156-31.625 13.160156-66.230469zm0 0" fill="#a0391e"/><path d="m464.460938 238.09375c7.570312-15.183594 28.976562-15.617188 37.199218-.851562-.164062-5.914063-1.253906-12.273438-3.703125-19.050782-6.441406-17.835937-18.394531-44.84375-38.058593-69.246094l-20.21875 35.023438c11.394531 16.992188 18.917968 34.515625 23.367187 46.832031.859375 2.378907 1.324219 4.835938 1.414063 7.292969zm0 0" fill="#84260d"/><path d="m160.363281 62.523438c9.367188-14.148438-.964843-32.90625-17.863281-32.640626 5.207031-2.8125 11.253906-5.050781 18.347656-6.320312 18.667969-3.339844 48.035156-6.492188 79-1.660156l-20.21875 35.019531c-20.417968-1.375-39.351562.871094-52.242187 3.179687-2.488281.445313-4.851563 1.273438-7.023438 2.421876zm0 0" fill="#84260d"/><path d="m246.1875 79.660156 29.917969-51.820312c5.125-8.875 2.082031-20.226563-6.792969-25.351563-8.878906-5.125-20.226562-2.082031-25.355469 6.792969l-29.917969 51.820312c-5.125 8.878907-2.082031 20.226563 6.792969 25.351563 8.878907 5.125 20.230469 2.085937 25.355469-6.792969zm0 0" fill="#f9d987"/><path d="m406.707031 172.335938 29.917969-51.816407c5.125-8.878906 16.476562-11.917969 25.355469-6.792969 8.875 5.125 11.917969 16.472657 6.792969 25.351563l-29.917969 51.820313c-5.125 8.875-16.476563 11.917968-25.355469 6.792968-8.875-5.125-11.917969-16.476562-6.792969-25.355468zm0 0" fill="#f9d987"/><path d="m437.738281 155.707031c-7.355469-4.246093-10.945312-12.492187-9.648437-20.40625l-21.382813 37.035157c-5.125 8.878906-2.082031 20.230468 6.792969 25.355468 8.878906 5.125 20.226562 2.082032 25.351562-6.792968l21.386719-37.039063c-6.207031 5.082031-15.140625 6.097656-22.5 1.847656zm0 0" fill="#ffcb37"/><path d="m245.074219 44.46875c-7.359375-4.246094-10.945313-12.488281-9.648438-20.40625l-21.386719 37.039062c-5.125 8.878907-2.082031 20.226563 6.792969 25.351563 8.878907 5.125 20.226563 2.085937 25.355469-6.792969l21.382812-37.039062c-6.207031 5.082031-15.140624 6.097656-22.496093 1.847656zm0 0" fill="#ffcb37"/><path d="m171.371094 394.59375c-4.679688-2.699219-10.046875-3.097656-14.820313-1.570312l163.0625-282.4375c1.277344 4.761718 4.371094 9.035156 8.976563 11.695312 4.609375 2.660156 9.855468 3.203125 14.617187 1.929688l-163.0625 282.433593c-1.0625-4.894531-4.089843-9.347656-8.773437-12.050781zm0 0" fill="#a0391e"/><path d="m300.105469 172.515625c4.621093 2.609375 7.5625 7.046875 8.367187 11.863281l34.738282-60.167968c-4.761719 1.273437-10.011719.730468-14.617188-1.929688s-7.699219-6.933594-8.976562-11.695312l-35.003907 60.625c4.484375-1.890626 9.992188-1.800782 15.492188 1.304687zm0 0" fill="#84260d"/><path d="m353.53125 70.316406c2.433594.4375 4.667969 1.566406 6.472656 3.226563.394532.363281.773438.742187 1.125 1.15625l7.609375 9.003906-21.148437 36.628906c-4.273438 7.40625-13.742188 9.941407-21.144532 5.667969-7.402343-4.273438-9.9375-13.742188-5.664062-21.144531l21.148438-36.628907zm0 0" fill="#ccccce"/><path d="m342.503906 89.144531c8.859375 1.59375 13.832032 11.644531 11.207032 20.59375l15.03125-26.035156c-6.265626-6.628906-8.242188-12.132813-15.210938-13.386719l-11.601562-2.089844-14.921876 25.84375c6.421876-6.792968 15.402344-4.914062 15.496094-4.925781zm0 0" fill="#bfbfbf"/><path d="m301.894531 57.972656 90.027344-51.078125c2.195313-1.246093 4.917969.324219 4.933594 2.847657l.777343 103.503906c.023438 3.089844-3.832031 4.519531-5.824218 2.160156l-32.195313-38.082031c-1.945312-2.300781-4.632812-3.855469-7.597656-4.386719l-49.078125-8.839844c-3.039062-.546875-3.730469-4.601562-1.042969-6.125zm0 0" fill="#ebeaec"/><path d="m395.207031 6.90625c.957031.550781 1.640625 1.574219 1.648438 2.835938l.777343 103.503906c.023438 3.089844-3.832031 4.519531-5.824218 2.160156l-32.195313-38.082031c-.972656-1.152344-2.128906-2.117188-3.414062-2.859375zm0 0" fill="#dad9dd"/><path d="m141.878906 420.613281 17.398438-30.132812-40.992188-2.367188c-11.066406-.636719-21.546875 5.015625-27.085937 14.617188l-21.511719 37.257812 13.152344-22.777343zm0 0" fill="#fcac1f"/><path d="m111.964844 472.425781 13.804687-23.910156-47.785156-2.753906c10.503906 9.847656 21.871094 18.777343 33.980469 26.664062zm0 0" fill="#ff7b22"/><path d="m180.988281 403.011719-17.398437 30.132812 32.46875 49.429688-12.433594 21.535156 20.792969-36.015625c5.542969-9.597656 5.199219-21.5-.886719-30.761719zm0 0" fill="#fcac1f"/><path d="m147.476562 461.050781-13.839843 23.972657c12.824219 6.59375 26.3125 12.082031 40.328125 16.355468zm0 0" fill="#ff7b22"/><path d="m70.550781 438.492188c2.425781 2.472656 4.902344 4.898437 7.433594 7.269531l47.785156 2.757812 16.109375-27.90625-59.042968-3.40625zm0 0" fill="#ff941f"/><path d="m147.476562 461.050781 26.488282 40.328125c3.195312.972656 6.414062 1.886719 9.660156 2.730469l12.429688-21.535156-32.46875-49.429688zm0 0" fill="#ff941f"/><path d="m175.9375 386.6875c-7.402344-4.273438-16.871094-1.738281-21.144531 5.667969l-45.292969 78.449219c8.558594 5.722656 17.5 10.914062 26.773438 15.539062l45.332031-78.511719c4.273437-7.402343 1.734375-16.871093-5.667969-21.144531zm0 0" fill="#f9d987"/><path d="m138.117188 421.238281-28.617188 49.566407c8.558594 5.722656 17.5 10.914062 26.773438 15.539062l28.640624-49.597656c-11.609374 10.175781-29.882812-.070313-26.796874-15.507813zm0 0" fill="#ffcb37"/></svg>