<svg height="511pt" viewBox="-10 0 511 511.99976" width="511pt" xmlns="http://www.w3.org/2000/svg"><path d="m490.5 267c0 135.308594-109.691406 245-245 245s-245-109.691406-245-245 109.691406-245 245-245 245 109.691406 245 245zm0 0" fill="#ff5252"/><path d="m135.480469 425.089844-25.632813 44.394531c-.214844.375-.441406.742187-.664062 1.113281 11.964844 8.023438 24.675781 15.015625 38.007812 20.859375.058594-.101562.113282-.210937.171875-.3125l25.628907-44.394531c17.128906-29.667969 38.003906-57.007812 62.136718-81.378906-30.226562-17.449219-30.015625-17.328125-60.242187-34.78125-9.039063 33.085937-22.28125 64.835937-39.40625 94.5zm0 0" fill="#a0391e"/><path d="m157.007812 381.957031 29.445313 43.113281c14.25-21.394531 30.542969-41.386718 48.675781-59.699218-30.226562-17.449219-30.015625-17.328125-60.242187-34.777344-4.792969 17.53125-10.777344 34.691406-17.878907 51.363281zm0 0" fill="#bc4c2e"/><path d="m257.355469 348.203125-78.710938-45.445313 172.742188-299.199218c2.496093-4.328125 8.5625-4.800782 11.699219-.910156 28.140624 52.214843 27.214843 115.285156-2.441407 166.652343zm0 0" fill="#dad9dd"/><path d="m236.726562 293.042969c-18.125-10.460938-26.894531-30.894531-23.398437-50.367188l-34.6875 60.082031 78.714844 45.445313 34.6875-60.082031c-15.117188 12.765625-37.195313 15.386718-55.316407 4.921875zm0 0" fill="#ccccce"/><path d="m363.085938 2.648438c-3.140626-3.890626-9.203126-3.417969-11.699219.910156l-4.15625 7.199218c16.898437 46.953126 12.578125 99.460938-12.796875 143.410157l-103.289063 178.902343 26.210938 15.132813 103.289062-178.902344c29.65625-51.367187 30.582031-114.4375 2.441407-166.652343zm0 0" fill="#ebeaec"/><path d="m257.355469 348.203125 34.6875-60.082031c-11.285157 9.53125-26.449219 13.402344-40.953125 10.402344l-19.945313 34.546874zm0 0" fill="#dad9dd"/><path d="m168.164062 320.910156-6.410156 11.097656c-4.144531 7.179688-1.660156 16.445313 5.519532 20.589844l52.605468 30.371094c7.179688 4.144531 16.445313 1.664062 20.589844-5.515625l6.40625-11.097656zm0 0" fill="#fcac1f"/><path d="m213.457031 347.058594-45.292969-26.148438-6.410156 11.097656c-4.144531 7.179688-1.660156 16.445313 5.519532 20.589844l28.753906 16.601563c-5.65625-11.265625 4.28125-24.234375 16.753906-21.457031.195312-.253907.421875-.484376.675781-.683594zm0 0" fill="#ff941f"/><path d="m263.890625 381.746094-117.566406-67.875c-8.109375-4.683594-10.886719-15.054688-6.203125-23.164063 4.679687-8.109375 15.050781-10.886719 23.160156-6.207031l117.5625 67.875c8.109375 4.683594 10.890625 15.054688 6.207031 23.164062-4.683593 8.109376-15.050781 10.890626-23.160156 6.207032zm0 0" fill="#ffcb37"/><path d="m222.683594 318.796875-59.402344-34.296875c-8.109375-4.679688-18.480469-1.902344-23.160156 6.207031-4.683594 8.109375-1.90625 18.480469 6.203125 23.164063l59.402343 34.292968c-10.511718-12.929687.507813-32.003906 16.957032-29.367187zm0 0" fill="#fcac1f"/><path d="m135.015625 425.890625c-19.484375 33.679687-23.84375 41.375-25.824219 44.710937 11.957032 8.019532 24.667969 15.007813 37.996094 20.855469 2.0625-3.636719 7.113281-12.269531 25.386719-43.984375-16.34375 11.671875-39.417969-1.074218-37.558594-21.582031zm0 0" fill="#84260d"/><path d="m135.480469 425.089844-21.996094 38.097656 44.523437 9.519531 14.984376-25.957031c2.527343-4.375 5.144531-8.691406 7.828124-12.960938l-44.835937-9.59375c-.171875.300782-.335937.597657-.503906.894532zm0 0" fill="#bc4c2e"/><path d="m135.015625 425.890625-19.46875 33.722656c-.773437 1.34375-1.457031 2.527344-2.058594 3.574219l44.519531 9.523438 14.550782-25.207032c.007812-.011718.011718-.019531.015625-.03125-16.34375 11.671875-39.417969-1.074218-37.558594-21.582031zm0 0" fill="#a0391e"/></svg>