<svg height="512pt" viewBox="-6 0 512 512.00064" width="512pt" xmlns="http://www.w3.org/2000/svg"><path d="m490 267c0 135.308594-109.691406 245-245 245s-245-109.691406-245-245 109.691406-245 245-245 245 109.691406 245 245zm0 0" fill="#5e73dd"/><path d="m206.605469 147.957031c-92.960938 54.5625-124.207031 174.582031-69.648438 267.546875 54.5625 92.960938 174.582031 124.207032 267.542969 69.644532 92.964844-54.558594 124.210938-174.578126 69.648438-267.542969-54.558594-92.960938-174.578126-124.207031-267.542969-69.648438zm0 0" fill="#ebeaec"/><path d="m379.5625 467.449219c-18.941406 1.074219-32.265625-18.3125-24.460938-35.617188-31.164062 2.734375-49.945312-33.835937-29.558593-57.550781-39.898438-13.492188-68.117188-61.890625-60.066407-103.472656-31.292968 5.625-53.195312-30.246094-33.972656-55.527344-18.535156-.761719-29.984375-20.539062-21.335937-37.003906-10.640625-3.070313-16.332031-14.625-12.144531-24.980469-86.257813 56.742187-113.90625 172.164063-61.0625 262.203125 51.949218 88.519531 163.25 121.074219 254.03125 76.886719-10.339844-3.390625-15.640626-14.796875-11.429688-24.9375zm0 0" fill="#dad9dd"/><path d="m220.511719 171.652344c-79.898438 46.890625-106.753907 150.042968-59.863281 229.945312 46.894531 79.898438 150.046874 106.753906 229.949218 59.859375 79.898438-46.890625 106.753906-150.046875 59.859375-229.945312-46.890625-79.898438-150.042969-106.753907-229.945312-59.859375zm0 0" fill="#ccccce"/><path d="m355.101562 431.832031c-31.164062 2.734375-49.945312-33.835937-29.558593-57.550781-39.898438-13.492188-68.117188-61.890625-60.066407-103.472656-31.292968 5.625-53.195312-30.246094-33.972656-55.527344-18.535156-.761719-29.984375-20.539062-21.335937-37.003906-.011719-.003906-.023438-.007813-.035157-.011719-71.765624 49.445313-94.28125 146.996094-49.484374 223.332031 44.742187 76.230469 140.691406 104.171875 218.800781 65.851563-18.9375.988281-32.117188-18.386719-24.347657-35.617188zm0 0" fill="#bfbfbf"/><path d="m413.726562 253.035156c-35.066406-59.742187-111.921874-79.746094-171.664062-44.679687-59.742188 35.066406-79.746094 111.925781-44.679688 171.664062 35.066407 59.742188 111.921876 79.746094 171.664063 44.679688 59.742187-35.066407 79.746094-111.921875 44.679687-171.664063zm0 0" fill="#bc4c2e"/><path d="m325.542969 374.28125c-39.898438-13.492188-68.117188-61.890625-60.066407-103.472656-31.140624 5.597656-53.265624-30.054688-34.011718-55.476563-51.402344 37.527344-66.988282 108.652344-34.085938 164.710938 32.371094 55.15625 100.367188 76.441406 157.628906 51.792969-31.144531 2.648437-49.808593-33.886719-29.464843-57.554688zm0 0" fill="#a0391e"/><path d="m305.207031 262.191406c5.867188-.039062 11.515625.859375 16.820313 2.542969v-72.578125c-5.667969-.742188-11.449219-1.113281-17.324219-1.070312-5.265625.039062-10.449219.402343-15.539063 1.070312v72.566406c5.066407-1.605468 10.453126-2.492187 16.042969-2.53125zm0 0" fill="#a0391e"/><path d="m429.953125 300.082031h-72.566406c1.605469 5.066407 2.488281 10.453125 2.53125 16.046875.039062 5.863282-.859375 11.511719-2.542969 16.816406h72.578125c.738281-5.667968 1.113281-11.449218 1.070313-17.324218-.039063-5.265625-.402344-10.449219-1.070313-15.539063zm0 0" fill="#a0391e"/><path d="m251.273438 316.902344c-.042969-5.867188.859374-11.515625 2.542968-16.820313h-72.578125c-.742187 5.667969-1.113281 11.449219-1.070312 17.324219.035156 5.265625.402343 10.449219 1.066406 15.539062h72.570313c-1.605469-5.066406-2.492188-10.453124-2.53125-16.042968zm0 0" fill="#84260d"/><path d="m305.980469 370.832031c-5.863281.042969-11.511719-.855469-16.816407-2.539062v72.574219c5.667969.742187 11.449219 1.117187 17.324219 1.074218 5.265625-.039062 10.449219-.402344 15.539063-1.070312v-72.566406c-5.066406 1.605468-10.453125 2.492187-16.046875 2.527343zm0 0" fill="#84260d"/><g fill="#ebeaec"><path d="m317.875 462.636719c-.046875-6.78125-5.585938-12.242188-12.367188-12.195313-6.78125.050782-12.242187 5.585938-12.191406 12.371094.046875 6.78125 5.582032 12.242188 12.367188 12.191406 6.78125-.046875 12.242187-5.585937 12.191406-12.367187zm0 0"/><path d="m317.882812 170.203125c-.050781-6.78125-5.585937-12.242187-12.371093-12.195313-6.78125.050782-12.242188 5.585938-12.191407 12.371094.046876 6.78125 5.585938 12.242188 12.367188 12.191406 6.78125-.046874 12.242188-5.585937 12.195312-12.367187zm0 0"/><path d="m464.09375 316.425781c-.046875-6.78125-5.585938-12.242187-12.367188-12.195312-6.785156.050781-12.242187 5.585937-12.195312 12.371093.046875 6.78125 5.585938 12.242188 12.367188 12.191407 6.785156-.046875 12.242187-5.585938 12.195312-12.367188zm0 0"/></g><path d="m358.089844 285.691406c-17.03125-29.011718-54.355469-38.726562-83.371094-21.695312-29.011719 17.027344-38.726562 54.355468-21.699219 83.367187 17.03125 29.015625 54.355469 38.730469 83.371094 21.699219 29.011719-17.03125 38.726563-54.355469 21.699219-83.371094zm0 0" fill="#ccccce"/><path d="m265.476562 270.808594c-.054687.011718-.117187.015625-.171874.023437-21.503907 18.890625-27.3125 50.953125-12.289063 76.554688 14.925781 25.429687 45.4375 36.035156 72.285156 26.804687-39.859375-13.640625-67.84375-61.96875-59.824219-103.382812zm0 0" fill="#bfbfbf"/><path d="m321.894531 316.414062c-.066406-9-7.414062-16.246093-16.414062-16.183593-9 .066406-16.246094 7.414062-16.179688 16.414062.0625 9 7.410157 16.246094 16.410157 16.179688 9-.0625 16.246093-7.410157 16.183593-16.410157zm0 0" fill="#ebeaec"/><path d="m70.894531 345.371094c-6.113281 21.96875-14.855469 43.109375-26.023437 62.980468 6.136718 8.671876 12.828125 16.921876 20.011718 24.707032l4.042969-7c11.953125-20.703125 26.46875-39.8125 43.207031-56.875-20.691406-11.949219-20.546874-11.863282-41.238281-23.8125zm0 0" fill="#a0391e"/><path d="m61.566406 373.203125 20.421875 32.332031c9.015625-12.917968 19.09375-25.085937 30.148438-36.351562-20.695313-11.949219-20.546875-11.863282-41.242188-23.8125-2.628906 9.445312-5.746093 18.730468-9.328125 27.832031zm0 0" fill="#bc4c2e"/><path d="m308.085938 54.601562-6.90625-47.488281c-.769532-5.300781-6.277344-8.492187-11.257813-6.53125l-44.796875 17.667969c-29.59375 11.667969-53.308594 34.664062-65.886719 63.882812l-102.289062 237.621094 27.199219 15.375 26.917968 15.871094 154.640625-207.398438c19.015625-25.503906 27.070313-57.539062 22.378907-89zm0 0" fill="#ebeaec"/><path d="m126.90625 295.71875c-15.914062-8.996094-23.84375-27-20.539062-44.308594l-29.417969 68.34375 27.199219 15.375 26.917968 15.871094 44.476563-59.648438c-13.339844 11.511719-32.894531 13.648438-48.636719 4.367188zm0 0" fill="#dad9dd"/><path d="m297.136719 1.128906c-2.097657-1.2187498-4.722657-1.527344-7.214844-.546875l-44.796875 17.667969c-29.59375 11.667969-53.308594 34.664062-65.886719 63.882812l-102.289062 237.621094 27.199219 15.375.117187.066406zm0 0" fill="#dad9dd"/><path d="m104.183594 335.148438.078125.046874 22.757812-39.414062c-.039062-.019531-.078125-.042969-.117187-.0625-15.910156-8.996094-23.839844-27-20.535156-44.308594l-29.417969 68.34375 27.199219 15.375zm0 0" fill="#ccccce"/><path d="m130.195312 343.886719c0 17.089843-13.855468 30.941406-30.945312 30.941406s-30.941406-13.851563-30.941406-30.941406c0-17.089844 13.851562-30.945313 30.941406-30.945313s30.945312 13.855469 30.945312 30.945313zm0 0" fill="#ffcb37"/><path d="m72.453125 328.414062c2.816406-4.882812 6.769531-8.699218 11.328125-11.324218l-21.773438-12.570313c-7.402343-4.273437-16.863281-1.738281-21.132812 5.660157-4.273438 7.402343-1.738281 16.863281 5.660156 21.136718l21.773438 12.570313c-.003906-5.257813 1.324218-10.589844 4.144531-15.472657zm0 0" fill="#ff941f"/><path d="m151.964844 356.453125-21.773438-12.570313c.007813 5.261719-1.324218 10.59375-4.140625 15.472657-2.820312 4.882812-6.773437 8.699219-11.332031 11.324219l21.773438 12.574218c7.402343 4.269532 16.863281 1.734375 21.136718-5.664062 4.273438-7.402344 1.738282-16.863282-5.664062-21.136719zm0 0" fill="#fcac1f"/><path d="m133.25 363.71875c.03125-.050781.058594-.101562.089844-.152344.027344-.050781.058594-.101562.085937-.15625 3.554688-6.230468 10.609375-9.226562 17.214844-7.722656l-20.449219-11.804688c.007813 5.257813-1.324218 10.589844-4.140625 15.472657-2.820312 4.882812-6.773437 8.699219-11.332031 11.324219l20.449219 11.804687c-4.609375-4.964844-5.539063-12.574219-1.917969-18.765625zm0 0" fill="#ff941f"/><path d="m98.144531 361.824219c0-3.011719 1.160157-5.683594 3.003907-7.695313-.4375.054688-.882813.089844-1.335938.089844-6.039062 0-10.898438-4.929688-10.898438-10.898438 0-2.289062.710938-4.375 1.890626-6.097656-.625.101563-1.261719.171875-1.917969.171875-6.347657 0-11.460938-5.1875-11.460938-11.460937 0-1.863282.445313-3.59375 1.214844-5.125-6.339844 5.667968-10.335937 13.902344-10.335937 23.078125 0 17.089843 13.855468 30.941406 30.945312 30.941406 3.410156 0 6.683594-.558594 9.75-1.574219-6.0625-.320312-10.855469-5.359375-10.855469-11.429687zm0 0" fill="#fcac1f"/><path d="m99.25 355.34375c-6.351562 0-11.460938-5.183594-11.460938-11.460938 0-7.269531 6.707032-12.636718 13.695313-11.230468 5.414063 1.101562 9.226563 5.78125 9.226563 11.230468 0 6.21875-5.042969 11.460938-11.460938 11.460938zm0 0" fill="#5e73dd"/><path d="m44.871094 408.351562c6.140625 8.675782 12.835937 16.925782 20.019531 24.71875 3.578125-6.191406 7.644531-13.625 14.855469-24.269531-11.613282 8.4375-28.195313-.335937-27.210938-15.058593-2.414062 4.941406-4.96875 9.8125-7.664062 14.609374zm0 0" fill="#84260d"/></svg>