<svg height="512pt" viewBox="-6 0 512 512" width="512pt" xmlns="http://www.w3.org/2000/svg"><path d="m500.757812 261.621094c0 51.300781-15.429687 99-41.898437 138.707031-44.882813 67.320313-342.824219 82.464844-388.339844 35.476563-43.652343-45.066407-70.519531-106.488282-70.519531-174.183594 0-138.28125 112.097656-250.378906 250.378906-250.378906s250.378906 112.097656 250.378906 250.378906zm0 0" fill="#0ed1b2"/><path d="m475.933594 291.027344-21.597656 37.40625c-3.148438 5.453125-8.964844 8.8125-15.261719 8.8125h-43.191407c-6.296874 0-12.113281-3.359375-15.261718-8.8125l-21.597656-37.40625c-3.148438-5.453125-3.148438-12.167969 0-17.621094l21.597656-37.40625c3.148437-5.453125 8.964844-8.8125 15.261718-8.8125h43.191407c6.296875 0 12.113281 3.359375 15.261719 8.8125l21.597656 37.40625c3.144531 5.453125 3.144531 12.167969 0 17.621094zm-154.609375-102.757813c-2.089844-3.617187-5.953125-5.847656-10.132813-5.847656h-28.679687c-4.179688 0-8.039063 2.226563-10.128907 5.847656l-14.339843 24.835938c-2.089844 3.617187-2.089844 8.078125 0 11.699219l14.339843 24.832031c2.089844 3.621093 5.949219 5.851562 10.128907 5.851562h28.679687c4.179688 0 8.042969-2.230469 10.132813-5.851562l14.335937-24.832031c2.089844-3.621094 2.089844-8.078126 0-11.699219zm62.324219-41.617187 12.523437-21.691406c1.824219-3.164063 1.824219-7.058594 0-10.21875l-12.523437-21.691407c-1.824219-3.164062-5.199219-5.109375-8.851563-5.109375h-25.042969c-3.652344 0-7.027344 1.945313-8.851562 5.109375l-12.523438 21.691407c-1.824218 3.160156-1.824218 7.054687 0 10.21875l12.523438 21.691406c1.824218 3.160156 5.199218 5.109375 8.851562 5.109375h25.042969c3.652344 0 7.027344-1.949219 8.851563-5.109375zm-110.101563-69.316406c1.03125 1.789062 2.9375 2.890624 5 2.890624h14.160156c2.066407 0 3.972657-1.101562 5.003907-2.890624l7.082031-12.261719c1.03125-1.789063 1.03125-3.988281 0-5.777344l-7.082031-12.261719c-1.03125-1.789062-2.9375-2.890625-5.003907-2.890625h-14.160156c-2.0625 0-3.96875 1.101563-5 2.890625l-7.082031 12.261719c-1.03125 1.789063-1.03125 3.988281 0 5.777344zm0 0" fill="#8cf4e0"/><path d="m204.390625 42.921875v413.890625c0 18.167969-7.300781 34.625-19.117187 46.621094-43.828126-11.773438-82.898438-35.136719-113.738282-66.609375v-393.902344zm0 0" fill="#aef7ff"/><path d="m111.394531 53.34375c5.523438-3.695312 11.203125-7.167969 17.027344-10.421875h75.96875v413.890625c0 18.171875-7.304687 34.625-19.125 46.617188-26.046875-6.996094-50.410156-18.085938-72.367187-32.539063-.980469-4.539063-1.503907-9.246094-1.503907-14.078125zm0 0" fill="#d2fcff"/><path d="m183.953125 229.941406v226.871094c0 16.527344-8.765625 31.039062-21.886719 39.148438-17.371094-6.546876-33.820312-14.96875-49.105468-25.023438-13.09375-8.609375-20.984376-23.21875-20.984376-38.890625v-181.667969c0-2.824218 2.289063-5.109375 5.109376-5.109375 9.453124.003907 18.816406-1.804687 27.589843-5.3125l24.53125-9.8125c8.777344-3.511719 18.140625-5.3125 27.59375-5.3125h2.042969c2.820312 0 5.109375 2.285157 5.109375 5.109375zm0 0" fill="#fdbf43"/><path d="m183.953125 229.941406v226.871094c0 19.605469-12.332031 36.382812-29.644531 42.988281-19.042969-7.058593-32.695313-25.777343-32.695313-47.242187v-211.460938c1.027344-.359375 2.050781-.738281 3.0625-1.140625l24.53125-9.8125c8.777344-3.511719 18.140625-5.3125 27.59375-5.3125h2.042969c2.820312 0 5.109375 2.285157 5.109375 5.109375zm0 0" fill="#fdcb6b"/><path d="m457.878906 401.78125c-21.855468 32.296875-51.0625 59.203125-85.207031 78.351562-1.914063.117188-3.84375.1875-5.789063.1875-50.796874 0-91.976562-41.179687-91.976562-91.976562s41.179688-91.976562 91.976562-91.976562c50.796876 0 91.976563 41.179687 91.976563 91.976562 0 4.566406-.339844 9.050781-.980469 13.4375zm0 0" fill="#fdd78d"/><path d="m379.808594 475.988281c-37.128906-11.828125-64.023438-46.59375-64.023438-87.644531 0-43.773438 30.578125-80.398438 71.535156-89.695312 40.960938 9.296874 71.539063 45.921874 71.539063 89.695312 0 4.574219-.355469 9.070312-1 13.464844-20.316406 30.011718-46.976563 55.378906-78.050781 74.179687zm0 0" fill="#fde5bd"/><path d="m254.46875 512h-91.976562c-39.511719 0-71.539063-32.027344-71.539063-71.535156 0-39.511719 32.027344-71.539063 71.539063-71.539063h91.976562c39.507812 0 71.535156 32.027344 71.535156 71.539063 0 39.507812-32.027344 71.535156-71.535156 71.535156zm0 0" fill="#0573cd"/><path d="m254.46875 368.925781c32.03125 0 59.140625 21.054688 68.253906 50.078125-9.113281 29.019532-36.222656 50.074219-68.253906 50.074219h-91.976562c-32.03125 0-59.140626-21.054687-68.257813-50.074219 9.113281-29.023437 36.226563-50.078125 68.257813-50.078125zm0 0" fill="#528ed7"/><path d="m225.851562 35.769531v10.21875c0 8.464844-6.863281 15.328125-15.328124 15.328125h-145.117188c-8.46875 0-15.332031-6.863281-15.332031-15.328125v-10.21875c0-8.46875 6.863281-15.332031 15.332031-15.332031h5.109375v-5.109375c0-8.464844 6.863281-15.328125 15.328125-15.328125h104.238281c8.46875 0 15.332031 6.863281 15.332031 15.328125v5.109375h5.109376c8.464843 0 15.328124 6.863281 15.328124 15.332031zm0 0" fill="#fd5ca6"/><path d="m193.128906 29.980469c.382813 5.949219-4.328125 10.898437-10.199218 10.898437h-88.910157c-2.820312 0-5.109375 2.289063-5.109375 5.109375 0 8.464844 6.863282 15.328125 15.328125 15.328125h-38.832031c-8.46875 0-15.332031-6.863281-15.332031-15.328125v-10.21875c0-8.46875 6.863281-15.332031 15.332031-15.332031h5.109375v-5.109375c0-8.464844 6.863281-15.328125 15.328125-15.328125h38.835938c-8.46875 0-15.332032 6.863281-15.332032 15.328125 0 2.824219 2.289063 5.109375 5.113282 5.109375h68.121093c5.441407 0 10.195313 4.109375 10.546875 9.542969zm0 0" fill="#fd3d96"/><path d="m407.761719 440.464844c0 39.507812-32.03125 71.535156-71.539063 71.535156h-86.867187v-143.074219h86.867187c39.507813 0 71.539063 32.027344 71.539063 71.539063zm0 0" fill="#fd5ca6"/><path d="m404.480469 419.003906c-9.117188 29.019532-36.226563 50.074219-68.257813 50.074219h-86.867187v-100.152344h86.867187c32.03125 0 59.140625 21.054688 68.257813 50.078125zm0 0" fill="#fd7ab5"/></svg>